<?xml version="1.0" standalone="no"?>
<!DOCTYPE svg PUBLIC "-//W3C//DTD SVG 20010904//EN"
 "http://www.w3.org/TR/2001/REC-SVG-20010904/DTD/svg10.dtd">
<svg version="1.0" xmlns="http://www.w3.org/2000/svg"
 width="1000.000000pt" height="1000.000000pt" viewBox="0 0 1000.000000 1000.000000"
 preserveAspectRatio="xMidYMid meet">

<g transform="translate(0.000000,1000.000000) scale(0.100000,-0.100000)"
fill="#000000" stroke="none">
<path d="M5520 7664 c-231 -19 -466 -100 -647 -221 -230 -155 -432 -421 -516
-678 -47 -142 -58 -212 -64 -412 l-6 -193 -796 0 c-493 0 -820 -4 -859 -10
-223 -37 -399 -198 -456 -417 -14 -53 -16 -182 -16 -1036 0 -678 3 -992 11
-1029 31 -149 146 -302 278 -372 133 -70 59 -66 1347 -66 l1163 0 6 -47 c10
-74 53 -222 82 -281 76 -159 243 -339 388 -422 101 -57 221 -105 315 -126 101
-22 340 -22 435 -1 346 77 617 293 741 589 68 160 67 153 71 608 5 468 0 524
-54 670 -118 316 -417 552 -770 610 l-73 12 0 114 0 114 -115 0 -115 0 0 -113
0 -114 -110 -21 c-135 -27 -242 -67 -348 -131 -134 -80 -221 -167 -321 -318
-36 -55 -51 -69 -59 -61 -9 9 -313 12 -1196 12 l-1185 1 -30 -29 -31 -30 0
-248 c0 -217 2 -252 17 -275 36 -55 -11 -53 1223 -53 l1140 0 0 -120 0 -120
-1143 0 c-1020 0 -1149 2 -1197 16 -70 21 -130 63 -175 121 -68 90 -66 44 -65
1103 0 641 4 967 11 995 26 97 109 189 205 225 54 20 74 20 1000 20 753 0 945
3 941 13 -2 6 -15 53 -28 102 -21 80 -24 111 -24 280 1 163 4 203 23 280 53
212 155 387 313 541 228 220 473 319 784 318 176 0 277 -24 420 -96 363 -183
573 -464 632 -843 12 -79 14 -141 8 -300 -4 -110 -8 -218 -9 -240 l-1 -39 70
-13 c118 -20 108 -27 130 90 27 140 28 463 2 584 -60 278 -171 479 -376 683
-161 160 -316 257 -511 318 -133 42 -331 66 -460 56z m565 -3054 c39 -6 82
-13 98 -16 l27 -6 0 -339 0 -339 -225 0 -225 0 0 340 0 340 23 5 c83 21 213
27 302 15z m-440 -1290 l115 0 0 175 0 175 225 0 225 0 0 -175 0 -175 115 0
115 0 2 582 3 583 79 -75 c99 -94 151 -164 192 -259 52 -118 56 -168 52 -588
-4 -318 -7 -387 -21 -437 -84 -287 -327 -498 -640 -552 -370 -65 -749 151
-875 498 l-27 73 -3 426 c-3 471 0 504 59 624 45 91 127 194 200 249 l64 49 3
-587 2 -586 115 0z"/>
<path d="M5485 7264 c-326 -52 -575 -230 -710 -507 -70 -144 -88 -225 -88
-397 0 -172 18 -253 88 -397 117 -241 329 -413 595 -484 121 -32 329 -32 449
0 102 27 194 68 279 123 l63 41 29 -28 c17 -16 30 -31 30 -34 0 -3 -23 -30
-50 -59 -28 -29 -50 -56 -50 -61 0 -12 1158 -1156 1170 -1156 5 0 90 80 188
178 l179 177 -136 132 c-192 185 -546 532 -817 800 -127 125 -236 228 -241
228 -5 0 -22 -13 -38 -30 l-29 -30 -27 33 c-22 26 -25 35 -15 47 26 30 106
218 127 295 31 114 32 335 1 450 -106 395 -451 668 -857 680 -60 2 -123 1
-140 -1z m271 -224 c204 -52 363 -180 454 -365 54 -109 73 -189 73 -310 0
-121 -19 -201 -73 -310 -168 -341 -582 -483 -924 -316 -180 88 -300 226 -363
416 -23 70 -27 96 -27 210 0 114 4 140 27 210 116 351 480 554 833 465z"/>
<path d="M2606 5614 l-26 -27 0 -172 c0 -159 2 -174 21 -199 l20 -26 168 0
c167 0 168 0 192 26 23 24 24 33 27 167 4 165 -1 201 -33 233 -23 23 -29 24
-183 24 -159 0 -159 0 -186 -26z"/>
<path d="M3211 5614 l-31 -26 0 -173 c0 -159 2 -174 21 -199 l20 -26 170 0
c167 0 170 0 194 25 25 24 25 27 25 198 l0 173 -28 27 c-28 27 -28 27 -184 27
-154 0 -157 0 -187 -26z"/>
<path d="M3813 5616 l-28 -24 -3 -148 c-6 -260 -11 -254 212 -254 90 0 172 3
181 6 36 14 45 57 45 224 l0 162 -29 29 -29 29 -161 0 c-155 0 -161 -1 -188
-24z"/>
<path d="M4416 5609 c-26 -30 -26 -32 -26 -198 0 -155 2 -170 21 -195 l20 -26
169 0 168 0 26 31 c20 24 26 41 26 81 0 47 -3 52 -60 110 -34 33 -90 98 -126
144 l-66 84 -63 0 c-58 0 -65 -2 -89 -31z"/>
<path d="M2884 4980 c-48 -19 -54 -43 -54 -223 l0 -169 29 -29 29 -29 151 0
c91 0 160 4 175 11 48 22 58 64 54 234 -3 154 -3 155 -31 182 -27 28 -28 28
-180 30 -83 1 -162 -2 -173 -7z"/>
<path d="M3494 4980 c-49 -19 -54 -42 -54 -226 l0 -172 31 -26 c30 -25 34 -26
183 -26 153 0 182 6 208 44 4 6 8 90 8 188 l0 176 -31 26 c-30 25 -34 26 -177
25 -81 0 -157 -4 -168 -9z"/>
<path d="M4095 4976 c-47 -20 -55 -50 -55 -212 0 -156 10 -203 50 -224 14 -8
74 -10 180 -8 215 4 204 -8 208 219 l3 170 -34 34 -35 35 -143 0 c-96 -1 -154
-5 -174 -14z"/>
<path d="M4710 4983 c-8 -3 -25 -14 -36 -25 -20 -17 -23 -34 -29 -158 -8 -156
-2 -209 27 -242 19 -22 27 -23 178 -26 232 -5 233 -3 228 248 l-3 162 -28 24
c-27 23 -34 24 -175 23 -81 0 -154 -3 -162 -6z"/>
</g>
</svg>
